<svg width="52" height="52" viewBox="0 0 52 52" fill="none" xmlns="http://www.w3.org/2000/svg">
<rect x="1" y="1" width="50" height="50" rx="25" fill="#4E7EB9"/>
<mask id="path-2-outside-1_132_1111" maskUnits="userSpaceOnUse" x="13" y="13" width="26" height="26" fill="black">
<rect fill="white" x="13" y="13" width="26" height="26"/>
<path fill-rule="evenodd" clip-rule="evenodd" d="M15.2188 20.5859V17.8906C15.2188 16.4173 16.4174 15.2188 17.8906 15.2188H20.5859C20.9225 15.2188 21.1953 14.9459 21.1953 14.6094C21.1953 14.2728 20.9225 14 20.5859 14H17.8906C15.7453 14 14 15.7453 14 17.8906V20.5859C14 20.9225 14.2728 21.1953 14.6094 21.1953C14.9459 21.1953 15.2188 20.9225 15.2188 20.5859ZM20.5859 36.7812C20.9225 36.7812 21.1953 37.0541 21.1953 37.3906C21.1953 37.7272 20.9225 38 20.5859 38H17.8906C15.7453 38 14 36.2547 14 34.1094V31.4141C14 31.0775 14.2728 30.8047 14.6094 30.8047C14.9459 30.8047 15.2188 31.0775 15.2188 31.4141V34.1094C15.2188 35.5826 16.4174 36.7812 17.8906 36.7812H20.5859ZM38 31.4141V34.1094C38 36.2547 36.2547 38 34.1094 38H31.4141C31.0775 38 30.8047 37.7272 30.8047 37.3906C30.8047 37.0541 31.0775 36.7812 31.4141 36.7812H34.1094C35.5826 36.7812 36.7812 35.5826 36.7812 34.1094V31.4141C36.7812 31.0775 37.0541 30.8047 37.3906 30.8047C37.7272 30.8047 38 31.0775 38 31.4141ZM38 17.8906V20.5859C38 20.9225 37.7272 21.1953 37.3906 21.1953C37.0541 21.1953 36.7812 20.9225 36.7812 20.5859V17.8906C36.7812 16.4173 35.5826 15.2188 34.1094 15.2188H31.4141C31.0775 15.2188 30.8047 14.9459 30.8047 14.6094C30.8047 14.2728 31.0775 14 31.4141 14H34.1094C36.2547 14 38 15.7453 38 17.8906ZM30.2053 31.7383C30.462 31.5012 30.4779 31.1008 30.2408 30.8441C30.0036 30.5873 29.6033 30.5715 29.3465 30.8086C28.433 31.6524 27.2445 32.1171 25.9999 32.1171C24.7554 32.1171 23.5669 31.6524 22.6534 30.8086C22.3966 30.5715 21.9963 30.5874 21.7591 30.8441C21.522 31.1008 21.5378 31.5012 21.7946 31.7383C22.9427 32.7987 24.4361 33.3828 25.9999 33.3828C27.5638 33.3828 29.0572 32.7987 30.2053 31.7383ZM27.2656 23.0469V27.5469C27.2656 28.4386 26.5402 29.1641 25.6484 29.1641H25.1328C24.7833 29.1641 24.5 28.8807 24.5 28.5312C24.5 28.1818 24.7833 27.8984 25.1328 27.8984H25.6484C25.8423 27.8984 26 27.7407 26 27.5469V23.0469C26 22.6974 26.2833 22.4141 26.6328 22.4141C26.9823 22.4141 27.2656 22.6974 27.2656 23.0469ZM31.625 24.8164V23.0117C31.625 22.6816 31.3574 22.4141 31.0273 22.4141C30.6973 22.4141 30.4297 22.6816 30.4297 23.0117V24.8164C30.4297 25.1465 30.6973 25.4141 31.0273 25.4141C31.3574 25.4141 31.625 25.1465 31.625 24.8164ZM20.5156 24.8164C20.5156 25.1465 20.7832 25.4141 21.1133 25.4141C21.4434 25.4141 21.7109 25.1465 21.7109 24.8164V23.0117C21.7109 22.6816 21.4434 22.4141 21.1133 22.4141C20.7832 22.4141 20.5156 22.6816 20.5156 23.0117V24.8164Z"/>
</mask>
<path fill-rule="evenodd" clip-rule="evenodd" d="M15.2188 20.5859V17.8906C15.2188 16.4173 16.4174 15.2188 17.8906 15.2188H20.5859C20.9225 15.2188 21.1953 14.9459 21.1953 14.6094C21.1953 14.2728 20.9225 14 20.5859 14H17.8906C15.7453 14 14 15.7453 14 17.8906V20.5859C14 20.9225 14.2728 21.1953 14.6094 21.1953C14.9459 21.1953 15.2188 20.9225 15.2188 20.5859ZM20.5859 36.7812C20.9225 36.7812 21.1953 37.0541 21.1953 37.3906C21.1953 37.7272 20.9225 38 20.5859 38H17.8906C15.7453 38 14 36.2547 14 34.1094V31.4141C14 31.0775 14.2728 30.8047 14.6094 30.8047C14.9459 30.8047 15.2188 31.0775 15.2188 31.4141V34.1094C15.2188 35.5826 16.4174 36.7812 17.8906 36.7812H20.5859ZM38 31.4141V34.1094C38 36.2547 36.2547 38 34.1094 38H31.4141C31.0775 38 30.8047 37.7272 30.8047 37.3906C30.8047 37.0541 31.0775 36.7812 31.4141 36.7812H34.1094C35.5826 36.7812 36.7812 35.5826 36.7812 34.1094V31.4141C36.7812 31.0775 37.0541 30.8047 37.3906 30.8047C37.7272 30.8047 38 31.0775 38 31.4141ZM38 17.8906V20.5859C38 20.9225 37.7272 21.1953 37.3906 21.1953C37.0541 21.1953 36.7812 20.9225 36.7812 20.5859V17.8906C36.7812 16.4173 35.5826 15.2188 34.1094 15.2188H31.4141C31.0775 15.2188 30.8047 14.9459 30.8047 14.6094C30.8047 14.2728 31.0775 14 31.4141 14H34.1094C36.2547 14 38 15.7453 38 17.8906ZM30.2053 31.7383C30.462 31.5012 30.4779 31.1008 30.2408 30.8441C30.0036 30.5873 29.6033 30.5715 29.3465 30.8086C28.433 31.6524 27.2445 32.1171 25.9999 32.1171C24.7554 32.1171 23.5669 31.6524 22.6534 30.8086C22.3966 30.5715 21.9963 30.5874 21.7591 30.8441C21.522 31.1008 21.5378 31.5012 21.7946 31.7383C22.9427 32.7987 24.4361 33.3828 25.9999 33.3828C27.5638 33.3828 29.0572 32.7987 30.2053 31.7383ZM27.2656 23.0469V27.5469C27.2656 28.4386 26.5402 29.1641 25.6484 29.1641H25.1328C24.7833 29.1641 24.5 28.8807 24.5 28.5312C24.5 28.1818 24.7833 27.8984 25.1328 27.8984H25.6484C25.8423 27.8984 26 27.7407 26 27.5469V23.0469C26 22.6974 26.2833 22.4141 26.6328 22.4141C26.9823 22.4141 27.2656 22.6974 27.2656 23.0469ZM31.625 24.8164V23.0117C31.625 22.6816 31.3574 22.4141 31.0273 22.4141C30.6973 22.4141 30.4297 22.6816 30.4297 23.0117V24.8164C30.4297 25.1465 30.6973 25.4141 31.0273 25.4141C31.3574 25.4141 31.625 25.1465 31.625 24.8164ZM20.5156 24.8164C20.5156 25.1465 20.7832 25.4141 21.1133 25.4141C21.4434 25.4141 21.7109 25.1465 21.7109 24.8164V23.0117C21.7109 22.6816 21.4434 22.4141 21.1133 22.4141C20.7832 22.4141 20.5156 22.6816 20.5156 23.0117V24.8164Z" fill="white"/>
<path d="M30.2408 30.8441L30.5346 30.5727L30.5346 30.5726L30.2408 30.8441ZM30.2053 31.7383L30.4767 32.0321L30.4767 32.0321L30.2053 31.7383ZM29.3465 30.8086L29.0751 30.5147L29.0751 30.5147L29.3465 30.8086ZM22.6534 30.8086L22.9248 30.5147L22.9247 30.5147L22.6534 30.8086ZM21.7591 30.8441L21.4653 30.5726L21.4653 30.5727L21.7591 30.8441ZM21.7946 31.7383L21.5232 32.0321L21.5232 32.0321L21.7946 31.7383ZM14.8188 17.8906V20.5859H15.6187V17.8906H14.8188ZM17.8906 14.8188C16.1965 14.8188 14.8188 16.1964 14.8188 17.8906H15.6187C15.6187 16.6383 16.6383 15.6187 17.8906 15.6187V14.8188ZM20.5859 14.8188H17.8906V15.6187H20.5859V14.8188ZM20.7953 14.6094C20.7953 14.725 20.7016 14.8188 20.5859 14.8188V15.6187C21.1434 15.6187 21.5953 15.1668 21.5953 14.6094H20.7953ZM20.5859 14.4C20.7016 14.4 20.7953 14.4937 20.7953 14.6094H21.5953C21.5953 14.0519 21.1434 13.6 20.5859 13.6V14.4ZM17.8906 14.4H20.5859V13.6H17.8906V14.4ZM14.4 17.8906C14.4 15.9662 15.9663 14.4 17.8906 14.4V13.6C15.5244 13.6 13.6 15.5244 13.6 17.8906H14.4ZM14.4 20.5859V17.8906H13.6V20.5859H14.4ZM14.6094 20.7953C14.4937 20.7953 14.4 20.7016 14.4 20.5859H13.6C13.6 21.1434 14.0519 21.5953 14.6094 21.5953V20.7953ZM14.8188 20.5859C14.8188 20.7016 14.725 20.7953 14.6094 20.7953V21.5953C15.1668 21.5953 15.6187 21.1434 15.6187 20.5859H14.8188ZM21.5953 37.3906C21.5953 36.8332 21.1434 36.3813 20.5859 36.3813V37.1812C20.7016 37.1812 20.7953 37.275 20.7953 37.3906H21.5953ZM20.5859 38.4C21.1434 38.4 21.5953 37.9481 21.5953 37.3906H20.7953C20.7953 37.5063 20.7016 37.6 20.5859 37.6V38.4ZM17.8906 38.4H20.5859V37.6H17.8906V38.4ZM13.6 34.1094C13.6 36.4756 15.5244 38.4 17.8906 38.4V37.6C15.9663 37.6 14.4 36.0337 14.4 34.1094H13.6ZM13.6 31.4141V34.1094H14.4V31.4141H13.6ZM14.6094 30.4047C14.0519 30.4047 13.6 30.8566 13.6 31.4141H14.4C14.4 31.2984 14.4938 31.2047 14.6094 31.2047V30.4047ZM15.6187 31.4141C15.6187 30.8566 15.1668 30.4047 14.6094 30.4047V31.2047C14.725 31.2047 14.8188 31.2984 14.8188 31.4141H15.6187ZM15.6187 34.1094V31.4141H14.8188V34.1094H15.6187ZM17.8906 36.3813C16.6383 36.3813 15.6187 35.3617 15.6187 34.1094H14.8188C14.8188 35.8035 16.1965 37.1812 17.8906 37.1812V36.3813ZM20.5859 36.3813H17.8906V37.1812H20.5859V36.3813ZM38.4 34.1094V31.4141H37.6V34.1094H38.4ZM34.1094 38.4C36.4756 38.4 38.4 36.4756 38.4 34.1094H37.6C37.6 36.0337 36.0337 37.6 34.1094 37.6V38.4ZM31.4141 38.4H34.1094V37.6H31.4141V38.4ZM30.4047 37.3906C30.4047 37.9481 30.8566 38.4 31.4141 38.4V37.6C31.2984 37.6 31.2047 37.5063 31.2047 37.3906H30.4047ZM31.4141 36.3813C30.8566 36.3813 30.4047 36.8332 30.4047 37.3906H31.2047C31.2047 37.275 31.2984 37.1812 31.4141 37.1812V36.3813ZM34.1094 36.3813H31.4141V37.1812H34.1094V36.3813ZM36.3813 34.1094C36.3813 35.3617 35.3617 36.3813 34.1094 36.3813V37.1812C35.8035 37.1812 37.1812 35.8035 37.1812 34.1094H36.3813ZM36.3813 31.4141V34.1094H37.1812V31.4141H36.3813ZM37.3906 30.4047C36.8332 30.4047 36.3813 30.8566 36.3813 31.4141H37.1812C37.1812 31.2984 37.275 31.2047 37.3906 31.2047V30.4047ZM38.4 31.4141C38.4 30.8566 37.9481 30.4047 37.3906 30.4047V31.2047C37.5063 31.2047 37.6 31.2984 37.6 31.4141H38.4ZM38.4 20.5859V17.8906H37.6V20.5859H38.4ZM37.3906 21.5953C37.9481 21.5953 38.4 21.1434 38.4 20.5859H37.6C37.6 20.7016 37.5063 20.7953 37.3906 20.7953V21.5953ZM36.3813 20.5859C36.3813 21.1434 36.8332 21.5953 37.3906 21.5953V20.7953C37.275 20.7953 37.1812 20.7016 37.1812 20.5859H36.3813ZM36.3813 17.8906V20.5859H37.1812V17.8906H36.3813ZM34.1094 15.6187C35.3617 15.6187 36.3813 16.6383 36.3813 17.8906H37.1812C37.1812 16.1964 35.8035 14.8188 34.1094 14.8188V15.6187ZM31.4141 15.6187H34.1094V14.8188H31.4141V15.6187ZM30.4047 14.6094C30.4047 15.1668 30.8566 15.6187 31.4141 15.6187V14.8188C31.2984 14.8188 31.2047 14.725 31.2047 14.6094H30.4047ZM31.4141 13.6C30.8566 13.6 30.4047 14.0519 30.4047 14.6094H31.2047C31.2047 14.4938 31.2984 14.4 31.4141 14.4V13.6ZM34.1094 13.6H31.4141V14.4H34.1094V13.6ZM38.4 17.8906C38.4 15.5244 36.4756 13.6 34.1094 13.6V14.4C36.0337 14.4 37.6 15.9662 37.6 17.8906H38.4ZM29.9469 31.1155C30.0342 31.2099 30.0283 31.3572 29.9339 31.4445L30.4767 32.0321C30.8957 31.6451 30.9216 30.9917 30.5346 30.5727L29.9469 31.1155ZM29.6179 31.1024C29.7124 31.0152 29.8597 31.021 29.947 31.1155L30.5346 30.5726C30.1475 30.1536 29.4942 30.1277 29.0751 30.5147L29.6179 31.1024ZM25.9999 32.5171C27.345 32.5171 28.6305 32.0146 29.618 31.1024L29.0751 30.5147C28.2356 31.2903 27.144 31.7171 25.9999 31.7171V32.5171ZM22.3819 31.1024C23.3694 32.0146 24.6549 32.5171 25.9999 32.5171V31.7171C24.8559 31.7171 23.7643 31.2903 22.9248 30.5147L22.3819 31.1024ZM22.0529 31.1155C22.1402 31.021 22.2875 31.0152 22.382 31.1024L22.9247 30.5147C22.5057 30.1277 21.8524 30.1537 21.4653 30.5726L22.0529 31.1155ZM22.066 31.4445C21.9715 31.3572 21.9657 31.2099 22.0529 31.1155L21.4653 30.5727C21.0783 30.9917 21.1041 31.6451 21.5232 32.0321L22.066 31.4445ZM25.9999 32.9828C24.5367 32.9828 23.1401 32.4366 22.066 31.4445L21.5232 32.0321C22.7452 33.1609 24.3356 33.7828 25.9999 33.7828V32.9828ZM29.9339 31.4445C28.8598 32.4366 27.4632 32.9828 25.9999 32.9828V33.7828C27.6643 33.7828 29.2547 33.1609 30.4767 32.0321L29.9339 31.4445ZM27.6656 27.5469V23.0469H26.8656V27.5469H27.6656ZM25.6484 29.5641C26.7611 29.5641 27.6656 28.6595 27.6656 27.5469H26.8656C26.8656 28.2177 26.3193 28.7641 25.6484 28.7641V29.5641ZM25.1328 29.5641H25.6484V28.7641H25.1328V29.5641ZM24.1 28.5312C24.1 29.1017 24.5624 29.5641 25.1328 29.5641V28.7641C25.0042 28.7641 24.9 28.6598 24.9 28.5312H24.1ZM25.1328 27.4984C24.5624 27.4984 24.1 27.9608 24.1 28.5312H24.9C24.9 28.4027 25.0042 28.2984 25.1328 28.2984V27.4984ZM25.6484 27.4984H25.1328V28.2984H25.6484V27.4984ZM25.6 27.5469C25.6 27.5198 25.6214 27.4984 25.6484 27.4984V28.2984C26.0632 28.2984 26.4 27.9616 26.4 27.5469H25.6ZM25.6 23.0469V27.5469H26.4V23.0469H25.6ZM26.6328 22.0141C26.0624 22.0141 25.6 22.4765 25.6 23.0469H26.4C26.4 22.9183 26.5042 22.8141 26.6328 22.8141V22.0141ZM27.6656 23.0469C27.6656 22.4765 27.2032 22.0141 26.6328 22.0141V22.8141C26.7614 22.8141 26.8656 22.9183 26.8656 23.0469H27.6656ZM31.225 23.0117V24.8164H32.025V23.0117H31.225ZM31.0273 22.8141C31.1365 22.8141 31.225 22.9026 31.225 23.0117H32.025C32.025 22.4607 31.5783 22.0141 31.0273 22.0141V22.8141ZM30.8297 23.0117C30.8297 22.9026 30.9182 22.8141 31.0273 22.8141V22.0141C30.4764 22.0141 30.0297 22.4607 30.0297 23.0117H30.8297ZM30.8297 24.8164V23.0117H30.0297V24.8164H30.8297ZM31.0273 25.0141C30.9182 25.0141 30.8297 24.9256 30.8297 24.8164H30.0297C30.0297 25.3674 30.4764 25.8141 31.0273 25.8141V25.0141ZM31.225 24.8164C31.225 24.9256 31.1365 25.0141 31.0273 25.0141V25.8141C31.5783 25.8141 32.025 25.3674 32.025 24.8164H31.225ZM21.1133 25.0141C21.0041 25.0141 20.9156 24.9256 20.9156 24.8164H20.1156C20.1156 25.3674 20.5623 25.8141 21.1133 25.8141V25.0141ZM21.3109 24.8164C21.3109 24.9256 21.2224 25.0141 21.1133 25.0141V25.8141C21.6643 25.8141 22.1109 25.3674 22.1109 24.8164H21.3109ZM21.3109 23.0117V24.8164H22.1109V23.0117H21.3109ZM21.1133 22.8141C21.2224 22.8141 21.3109 22.9026 21.3109 23.0117H22.1109C22.1109 22.4607 21.6643 22.0141 21.1133 22.0141V22.8141ZM20.9156 23.0117C20.9156 22.9026 21.0041 22.8141 21.1133 22.8141V22.0141C20.5623 22.0141 20.1156 22.4607 20.1156 23.0117H20.9156ZM20.9156 24.8164V23.0117H20.1156V24.8164H20.9156Z" fill="white" mask="url(#path-2-outside-1_132_1111)"/>
<rect x="1" y="1" width="50" height="50" rx="25" stroke="#FEE285" stroke-width="2"/>
</svg>
